<svg height="512pt" viewBox="0 -77 512 512" width="512pt" xmlns="http://www.w3.org/2000/svg" xmlns:xlink="http://www.w3.org/1999/xlink"><linearGradient id="a" gradientUnits="userSpaceOnUse" x1="0" x2="512" y1="178.77525" y2="178.77525"><stop offset="0" stop-color="#80d8ff"/><stop offset="1" stop-color="#ea80fc"/></linearGradient><path d="m361.644531 74.195312c-19.285156-3.992187-105.742187-21.898437-174.398437-36.117187l-32.21875-32.21875c-7.8125-7.8125-20.476563-7.8125-28.285156 0-7.808594 7.808594-7.808594 20.472656 0 28.28125l21.621093 21.621094c-36.109375 29.703125-80.996093 45.855469-128.363281 45.855469-11.046875 0-20 8.953124-20 20v215.933593c0 11.046875 8.953125 20 20 20h472c11.046875 0 20-8.953125 20-20v-78.667969c0-89.234374-62.730469-166.539062-150.355469-184.6875zm-321.644531 66.617188c53.621094-4.351562 103.691406-26.152344 143.5625-62.648438l32.085938 6.644532-13.792969 13.789062c-7.808594 7.8125-7.808594 20.476563 0 28.285156 7.8125 7.808594 20.476562 7.8125 28.285156 0l32.371094-32.367187 31.765625 6.578125-13.753906 13.753906c-7.808594 7.8125-7.808594 20.472656 0 28.285156 7.8125 7.808594 20.472656 7.808594 28.285156 0l32.335937-32.335937 12.386719 2.566406c62.023438 12.847657 108.683594 64.050781 117.105469 125.519531h-430.636719zm432 176.738281h-432v-38.667969h432zm0 0" fill="url(#a)"/></svg>